<?xml version="1.0" standalone="no"?>
<!DOCTYPE svg PUBLIC "-//W3C//DTD SVG 20010904//EN"
 "http://www.w3.org/TR/2001/REC-SVG-20010904/DTD/svg10.dtd">
<svg version="1.0" xmlns="http://www.w3.org/2000/svg"
 width="512.000000pt" height="512.000000pt" viewBox="0 0 512.000000 512.000000"
 preserveAspectRatio="xMidYMid meet">

<g transform="translate(0.000000,512.000000) scale(0.100000,-0.100000)"
fill="#000000" stroke="none">
<path d="M3035 5110 c-638 -59 -1209 -451 -1500 -1030 -87 -173 -151 -377
-179 -573 -19 -129 -20 -394 -2 -520 l12 -87 -220 2 -219 3 -56 220 -56 220
-392 3 -393 2 0 -170 0 -170 260 0 259 0 12 -42 c6 -24 116 -452 244 -953
l232 -910 1335 -3 c1064 -2 1337 0 1340 10 3 7 18 83 33 168 16 85 32 160 37
166 5 6 43 24 86 39 88 31 241 106 339 166 291 178 556 477 703 794 272 583
231 1246 -111 1797 -140 226 -360 447 -585 586 -360 223 -764 320 -1179 282z
m3 -875 c-4 -4 -183 13 -270 26 l-76 11 19 46 c56 130 180 300 269 368 l55 42
3 -246 c1 -135 1 -246 0 -247z m463 396 c41 -42 94 -105 117 -141 55 -84 118
-207 111 -214 -6 -6 -181 -31 -286 -40 l-63 -6 0 251 0 250 23 -12 c12 -7 56
-46 98 -88z m-1041 -55 c0 -2 -15 -35 -34 -72 -18 -38 -41 -86 -49 -106 -9
-21 -20 -38 -24 -38 -16 0 -133 45 -133 51 0 7 120 99 185 142 38 24 55 32 55
23z m1564 -27 c58 -36 186 -131 186 -139 0 -6 -120 -50 -137 -50 -6 0 -15 10
-19 23 -3 12 -26 61 -49 110 -24 48 -41 87 -38 87 3 0 29 -14 57 -31z m-1923
-459 c68 -27 130 -50 138 -50 9 0 12 -8 7 -27 -27 -130 -57 -308 -66 -403 -6
-63 -13 -134 -16 -157 l-5 -43 -236 0 -236 0 7 64 c12 116 63 286 130 430 36
80 133 236 146 236 4 0 63 -22 131 -50z m2404 -12 c115 -179 203 -415 230
-615 l7 -53 -241 0 -241 0 0 43 c0 71 -30 305 -56 434 -13 68 -24 128 -24 135
0 7 30 24 68 37 37 14 94 37 127 52 33 15 67 28 75 28 8 1 33 -27 55 -61z
m-1780 -152 c50 -8 133 -18 185 -21 52 -4 103 -9 113 -12 16 -4 17 -24 17
-244 l0 -239 -271 0 -270 0 5 55 c3 30 9 81 12 113 7 80 31 225 50 304 15 64
17 67 42 63 15 -3 68 -12 117 -19z m1144 -86 c24 -116 51 -317 51 -382 l0 -48
-270 0 -270 0 0 239 0 239 28 6 c15 2 67 8 116 11 49 4 139 15 200 24 61 10
114 15 118 12 4 -4 17 -49 27 -101z m-1705 -801 c3 -17 6 -56 6 -85 l0 -54
-229 0 -229 0 -11 68 c-7 37 -14 75 -16 85 -3 16 14 17 235 17 l238 0 6 -31z
m876 -54 l0 -85 -265 0 -265 0 0 54 c0 29 -3 68 -6 85 l-6 31 271 0 271 0 0
-85z m880 46 c0 -21 -3 -59 -6 -85 l-7 -46 -263 0 -264 0 0 85 0 85 270 0 270
0 0 -39z m816 -8 c-22 -153 -77 -326 -152 -476 -42 -83 -120 -207 -131 -207
-6 0 -142 52 -259 100 -21 8 -21 10 -8 67 27 112 54 289 66 426 l12 137 239 0
239 0 -6 -47z m-1100 -490 c-3 -16 -49 -257 -101 -538 -52 -280 -97 -520 -100
-532 l-5 -23 -1064 0 -1064 0 -20 78 c-52 195 -262 1024 -262 1032 0 7 468 10
1311 10 l1311 0 -6 -27z m502 -435 c34 -12 62 -25 62 -29 0 -7 -98 -84 -145
-113 -16 -10 -44 -27 -62 -37 l-32 -20 52 111 c28 60 54 110 57 110 3 0 33
-10 68 -22z"/>
<path d="M1340 981 c-220 -59 -370 -254 -370 -480 0 -264 199 -477 465 -498
302 -24 567 257 525 557 -5 37 -12 75 -16 84 -6 15 29 16 426 16 l432 0 -6
-27 c-3 -16 -9 -62 -12 -103 -12 -140 40 -273 146 -380 199 -199 501 -199 700
0 199 199 199 501 0 700 -36 36 -90 77 -120 92 -122 60 -85 58 -1140 57 -890
0 -970 -2 -1030 -18z m219 -350 c87 -62 87 -200 0 -262 -104 -74 -251 3 -251
131 0 61 30 113 80 140 49 27 126 22 171 -9z m1784 15 c103 -43 128 -177 48
-257 -65 -65 -157 -65 -222 0 -124 123 13 325 174 257z"/>
</g>
</svg>
